<mxfile host="app.diagrams.net" modified="2024-07-17T16:50:56.846Z" agent="Mozilla/5.0 (Macintosh; Intel Mac OS X 10_15_7) AppleWebKit/537.36 (KHTML, like Gecko) Chrome/126.0.0.0 Safari/537.36" etag="0re7uwv0U9ySBfpqBwgV" version="24.7.1" type="github">
  <diagram name="Страница — 1" id="TN-m_n2SklLeE0e-kr3-">
    <mxGraphModel dx="954" dy="606" grid="1" gridSize="10" guides="1" tooltips="1" connect="1" arrows="1" fold="1" page="1" pageScale="1" pageWidth="827" pageHeight="1169" math="0" shadow="0">
      <root>
        <mxCell id="0" />
        <mxCell id="1" parent="0" />
        <mxCell id="Ie2NDlqqr5Qnv8EQaSs7-1" value="" style="strokeWidth=2;html=1;shape=mxgraph.flowchart.start_2;whiteSpace=wrap;" vertex="1" parent="1">
          <mxGeometry x="370" y="220" width="60" height="60" as="geometry" />
        </mxCell>
        <mxCell id="Ie2NDlqqr5Qnv8EQaSs7-2" value="Загрузить данные для прогноза" style="rounded=1;whiteSpace=wrap;html=1;absoluteArcSize=1;arcSize=14;strokeWidth=2;" vertex="1" parent="1">
          <mxGeometry x="480" y="220" width="100" height="60" as="geometry" />
        </mxCell>
        <mxCell id="Ie2NDlqqr5Qnv8EQaSs7-3" value="Подобрать подходящую модель из уже существующих" style="rounded=1;whiteSpace=wrap;html=1;absoluteArcSize=1;arcSize=14;strokeWidth=2;" vertex="1" parent="1">
          <mxGeometry x="300" y="320" width="100" height="60" as="geometry" />
        </mxCell>
        <mxCell id="Ie2NDlqqr5Qnv8EQaSs7-5" value="Проверить наличие подходящей модели для прогноза" style="strokeWidth=2;html=1;shape=mxgraph.flowchart.decision;whiteSpace=wrap;" vertex="1" parent="1">
          <mxGeometry x="440" y="300" width="180" height="100" as="geometry" />
        </mxCell>
      </root>
    </mxGraphModel>
  </diagram>
</mxfile>
